<svg width="16" height="16" viewBox="0 0 16 16" fill="none" xmlns="http://www.w3.org/2000/svg">
<g clip-path="url(#clip0_258_2515)">
<path d="M10.88 0.906716H6.61333C6.00889 0.906716 5.45778 1.04894 4.96 1.33338C4.46222 1.61783 4.06222 2.01783 3.76 2.53338C3.45778 3.04894 3.30667 3.60894 3.30667 4.21338H2.34667C1.70667 4.21338 1.15556 4.44449 0.693333 4.90672C0.231111 5.36894 0 5.92005 0 6.56005V8.00005C0 8.14227 0.0444444 8.25783 0.133333 8.34672C0.222222 8.43561 0.337778 8.48005 0.48 8.48005H7.09333C7.23556 8.48005 7.35111 8.43561 7.44 8.34672C7.52889 8.25783 7.57333 8.14227 7.57333 8.00005V6.56005C7.57333 5.92005 7.34222 5.36894 6.88 4.90672C6.41778 4.44449 5.86667 4.21338 5.22667 4.21338H4.26667C4.26667 3.57338 4.49778 3.02227 4.96 2.56005C5.42222 2.09783 5.97333 1.84894 6.61333 1.81338H10.88C11.52 1.84894 12.0711 2.09783 12.5333 2.56005C12.9956 3.02227 13.2444 3.57338 13.28 4.21338V14.6134H14.1867V4.21338C14.1867 3.60894 14.0444 3.04894 13.76 2.53338C13.4756 2.01783 13.0756 1.61783 12.56 1.33338C12.0444 1.04894 11.4844 0.906716 10.88 0.906716ZM5.17333 5.17338C5.56444 5.17338 5.90222 5.30672 6.18667 5.57338C6.47111 5.84005 6.61333 6.16894 6.61333 6.56005V7.52005H0.906667V6.56005C0.906667 6.16894 1.04889 5.84005 1.33333 5.57338C1.61778 5.30672 1.95556 5.17338 2.34667 5.17338H5.17333ZM0.48 9.92005H1.38667V13.2267H0.48V9.92005ZM2.34667 9.92005H3.30667V11.3067H2.34667V9.92005ZM2.34667 12.7467H3.30667V14.6134H2.34667V12.7467ZM4.26667 9.92005H5.17333V12.2667H4.26667V9.92005ZM4.26667 13.2267H5.17333V14.1334H4.26667V13.2267ZM6.13333 9.92005H7.09333V11.3067H6.13333V9.92005ZM6.13333 12.2667H7.09333V15.0934H6.13333V12.2667Z" fill="#181A20"/>
</g>
<defs>
<clipPath id="clip0_258_2515">
<rect width="16" height="16" fill="white" transform="matrix(1 0 0 -1 0 16)"/>
</clipPath>
</defs>
</svg>
