<svg width="16" height="16" viewBox="0 0 16 16" fill="none" xmlns="http://www.w3.org/2000/svg">
<g clip-path="url(#clip0_258_2512)">
<path d="M13.8133 8.90665L13.7067 8.85331V4.21331C13.7067 3.57331 13.4756 3.01331 13.0133 2.53331C12.5511 2.05331 12 1.81331 11.36 1.81331H2.82667C2.18667 1.81331 1.63556 2.05331 1.17333 2.53331C0.711111 3.01331 0.48 3.57331 0.48 4.21331V8.85331L0.426667 8.90665C0.142222 9.19109 0 9.52887 0 9.91998V13.7066C0 13.8133 0.0444444 13.92 0.133333 14.0266C0.222222 14.1333 0.337778 14.1866 0.48 14.1866H2.82667C3.00444 14.1866 3.12889 14.1155 3.2 13.9733L4.05333 12.7466H10.1867L10.9867 13.9733C11.0578 14.1155 11.1822 14.1866 11.36 14.1866H13.76C13.8667 14.1866 13.9644 14.1333 14.0533 14.0266C14.1422 13.92 14.1867 13.8133 14.1867 13.7066V9.91998C14.1867 9.52887 14.0622 9.19109 13.8133 8.90665ZM2.82667 2.77331H11.36C11.7511 2.77331 12.0889 2.91553 12.3733 3.19998C12.6578 3.48442 12.8 3.8222 12.8 4.21331V7.03998C12.5867 6.75553 12.3111 6.52442 11.9733 6.34665C11.6356 6.16887 11.2711 6.09776 10.88 6.13331H3.30667C2.63111 6.09776 2.08 6.31109 1.65333 6.77331L1.38667 7.09331V4.21331C1.38667 3.8222 1.52889 3.48442 1.81333 3.19998C2.09778 2.91553 2.43556 2.77331 2.82667 2.77331ZM12.32 8.47998H1.86667C1.86667 8.08887 2.00889 7.75109 2.29333 7.46665C2.57778 7.1822 2.91556 7.03998 3.30667 7.03998H10.88C11.2711 7.03998 11.6089 7.1822 11.8933 7.46665C12.1778 7.75109 12.32 8.08887 12.32 8.47998ZM13.28 13.2266H11.6267L10.8267 12C10.72 11.8578 10.5778 11.7866 10.4 11.7866H3.78667C3.60889 11.7866 3.46667 11.8578 3.36 12L2.56 13.2266H0.906667V9.91998C0.906667 9.77776 0.96 9.6622 1.06667 9.57331C1.17333 9.48442 1.28 9.43998 1.38667 9.43998H12.8C12.9067 9.43998 13.0133 9.48442 13.12 9.57331C13.2267 9.6622 13.28 9.77776 13.28 9.91998V13.2266Z" fill="#181A20"/>
</g>
<defs>
<clipPath id="clip0_258_2512">
<rect width="16" height="16" fill="white" transform="matrix(1 0 0 -1 0 16)"/>
</clipPath>
</defs>
</svg>
