<svg width="16" height="16" viewBox="0 0 16 16" fill="none" xmlns="http://www.w3.org/2000/svg">
<g clip-path="url(#clip0_258_2518)">
<path d="M5.65333 0.906716H8.53333V1.81338H5.65333V0.906716ZM13.28 13.7067C13.28 13.8134 13.2267 13.9201 13.12 14.0267C13.0133 14.1334 12.9067 14.1867 12.8 14.1867H10.88V15.0934H12.8C13.1911 15.0934 13.52 14.9601 13.7867 14.6934C14.0533 14.4267 14.1867 14.0978 14.1867 13.7067V11.7867H13.28V13.7067ZM12.8 0.906716H10.88V1.81338H12.8C12.9067 1.81338 13.0133 1.86672 13.12 1.97338C13.2267 2.08005 13.28 2.18672 13.28 2.29338V4.21338H14.1867V2.29338C14.1867 1.90227 14.0533 1.57338 13.7867 1.30672C13.52 1.04005 13.1911 0.906716 12.8 0.906716ZM0.906667 2.29338C0.906667 2.18672 0.96 2.08005 1.06667 1.97338C1.17333 1.86672 1.28 1.81338 1.38667 1.81338H3.30667V0.906716H1.38667C0.995556 0.906716 0.666667 1.04005 0.4 1.30672C0.133333 1.57338 0 1.90227 0 2.29338V4.21338H0.906667V2.29338ZM13.28 6.56005H14.1867V9.44005H13.28V6.56005ZM10.88 7.52005V4.69338C10.88 4.55116 10.8356 4.43561 10.7467 4.34672C10.6578 4.25783 10.5422 4.21338 10.4 4.21338H7.57333V5.17338H9.28L6.77333 7.68005C6.56 7.57338 6.34667 7.52005 6.13333 7.52005H1.38667C1.24444 7.52005 1.08444 7.55561 0.906667 7.62672V6.56005H0V13.7067C0 14.0978 0.133333 14.4267 0.4 14.6934C0.666667 14.9601 0.995556 15.0934 1.38667 15.0934H8.53333V14.1867H7.46667C7.53778 14.0089 7.57333 13.8489 7.57333 13.7067V8.96005C7.57333 8.74672 7.52 8.53338 7.41333 8.32005L9.92 5.81338V7.52005H10.88ZM1.38667 14.1867C1.28 14.1867 1.17333 14.1334 1.06667 14.0267C0.96 13.9201 0.906667 13.8134 0.906667 13.7067V8.96005C0.906667 8.81783 0.96 8.70227 1.06667 8.61338C1.17333 8.52449 1.28 8.48005 1.38667 8.48005H6.13333C6.27556 8.48005 6.39111 8.52449 6.48 8.61338C6.56889 8.70227 6.61333 8.81783 6.61333 8.96005V13.7067C6.61333 13.8134 6.56889 13.9201 6.48 14.0267C6.39111 14.1334 6.27556 14.1867 6.13333 14.1867H1.38667Z" fill="#181A20"/>
</g>
<defs>
<clipPath id="clip0_258_2518">
<rect width="16" height="16" fill="white" transform="matrix(1 0 0 -1 0 16)"/>
</clipPath>
</defs>
</svg>
